<?xml version="1.0"?>
<svg xmlns="http://www.w3.org/2000/svg" height="512px" viewBox="-48 0 440 440" width="512px"><path d="m130.382812 151.800781c17.570313 0 31.8125-14.242187 31.8125-31.8125.003907-17.570312-14.238281-31.8125-31.808593-31.8125-17.570313 0-31.8125 14.242188-31.8125 31.8125.015625 17.558594 14.25 31.792969 31.808593 31.8125zm0 0" fill="#FFFFFF"/><path d="m264.980469 94h67.875l-79.855469-82.152344v70.285156c.007812 6.5625 5.335938 11.875 11.898438 11.867188zm0 0" fill="#FFFFFF"/><path d="m192 243.183594c0-28.21875-23.441406-51.183594-51.664062-51.183594h-20.175782c-28.25.035156-51.136718 22.933594-51.160156 51.183594v4.816406h123zm0 0" fill="#FFFFFF"/><path d="m237 82.132812v-82.132812h-204.769531c-17.734375.0585938-32.113281 14.386719-32.230469 32.117188v375.765624c.117188 17.730469 14.496094 32.058594 32.230469 32.117188h279.539062c17.734375-.058594 32.113281-14.386719 32.230469-32.117188v-297.882812h-79.019531c-15.410157.042969-27.9375-12.410156-27.980469-27.820312zm-106.617188-9.960937c26.40625 0 47.8125 21.40625 47.8125 47.8125.003907 26.40625-21.402343 47.8125-47.808593 47.8125s-47.8125-21.40625-47.8125-47.8125c.027343-26.390625 21.417969-47.78125 47.808593-47.8125zm-77.382812 171.011719c-.101562-37 29.8125-67.082032 66.816406-67.183594h20.519532c37.238281-.132812 67.53125 29.949219 67.664062 67.183594v12.644531c0 4.417969-4.066406 8.171875-8.484375 8.171875h-138.53125c-4.449219-.082031-8.007813-3.722656-7.984375-8.171875zm.820312 68.816406h137.816407c4.417969 0 8 3.582031 8 8s-3.582031 8-8 8h-137.816407c-4.417968 0-8-3.582031-8-8s3.582032-8 8-8zm238.199219 62c0 4.417969-3.582031 8-8 8h-230.199219c-4.417968 0-8-3.582031-8-8s3.582032-8 8-8h230.199219c4.417969 0 8 3.582031 8 8zm0 0" fill="#FFFFFF"/></svg>
