<svg width="512" height="512" xmlns="http://www.w3.org/2000/svg">

 <g>
  <title>background</title>
  <rect fill="none" id="canvas_background" height="402" width="582" y="-1" x="-1"/>
 </g>
 <g>
  <title>Layer 1</title>
  <g stroke="null" id="svg_1">
   <path stroke="null" id="svg_2" d="m458.999997,0l-407.999997,0c-9.396467,0 -17,6.709 -17,15l0,482c0,8.291 7.603533,15 17,15l407.999997,0c9.396467,0 17,-6.709 17,-15l0,-482c0,-8.291 -7.603533,-15 -17,-15zm-271.999998,151c-28.122533,0 -51,-20.186 -51,-45s22.877467,-45 51,-45s51,20.186 51,45s-22.877467,45 -51,45c46.866733,0 84.999999,33.647 84.999999,75c0,8.291 -7.603533,15 -17,15l-135.999999,0c-9.396467,0 -17,-6.709 -17,-15c0,-41.353 38.133266,-75 84.999999,-75zm203.999999,270l-271.999998,0c-9.396467,0 -17,-6.709 -17,-15s7.603533,-15 17,-15l271.999998,0c9.396467,0 17,6.709 17,15s-7.603533,15 -17,15zm0,-90l-271.999998,0c-9.396467,0 -17,-6.709 -17,-15s7.603533,-15 17,-15l271.999998,0c9.396467,0 17,6.709 17,15s-7.603533,15 -17,15zm0,-90l-68,0c-9.396467,0 -17,-6.709 -17,-15s7.603533,-15 17,-15l68,0c9.396467,0 17,6.709 17,15s-7.603533,15 -17,15zm0,-90l-68,0c-9.396467,0 -17,-6.709 -17,-15s7.603533,-15 17,-15l68,0c9.396467,0 17,6.709 17,15s-7.603533,15 -17,15z"/>
   <path stroke="null" id="svg_3" d="m186.999999,181c-22.163467,0 -41.072,12.539 -48.095266,30l96.189399,0c-7.022133,-17.461 -25.930666,-30 -48.094133,-30z"/>
   <path stroke="null" id="svg_4" d="m186.999999,91c-9.379467,0 -17,6.724 -17,15s7.620533,15 17,15s17,-6.724 17,-15s-7.620533,-15 -17,-15z"/>
  </g>
 </g>
</svg>