<?xml version="1.0" encoding="iso-8859-1"?>
<!-- Generator: Adobe Illustrator 19.0.0, SVG Export Plug-In . SVG Version: 6.00 Build 0)  -->
<svg version="1.1" id="Capa_1" xmlns="http://www.w3.org/2000/svg" xmlns:xlink="http://www.w3.org/1999/xlink" x="0px" y="0px"
	 viewBox="0 0 512 512" style="enable-background:new 0 0 512 512;" xml:space="preserve">
<path style="fill:#0964AF;" d="M507.348,127.798H4.643c-2.564,0-4.643,2.079-4.643,4.643v241.783c0,5.511,4.467,9.978,9.978,9.978
	h250.231c1.231,0,2.412-0.489,3.283-1.36l247.139-247.118C513.556,132.799,511.484,127.798,507.348,127.798z"/>
<path style="fill:#004F9C;" d="M25.261,127.798H4.643c-0.641,0-1.252,0.13-1.807,0.365C1.169,128.868,0,130.518,0,132.441v241.783
	c0,5.511,4.467,9.978,9.978,9.978h10.641V132.441C20.618,129.877,22.697,127.798,25.261,127.798z"/>
<path style="fill:#F2F2F2;" d="M310.803,250.47h-11.232v-41.122h11.232c14.992,0,26.933,4.972,26.933,20.343
	C337.736,245.507,325.795,250.47,310.803,250.47 M173.518,276.921l16.185-51.027h0.312l15.844,51.189
	C195.654,280.807,183.407,280.707,173.518,276.921z M307.811,175.984l-51.056-0.009v121.287l-44.558-121.287h-44.208
	l-38.062,101.427c-4.026-25.55-30.485-34.387-51.349-40.997c-13.751-4.442-28.28-10.967-28.175-18.108
	c0.105-5.908,7.833-11.345,23.136-10.54c10.228,0.521,19.272,1.354,37.277,10.058l17.776-30.894
	c-16.469-8.353-39.199-13.628-57.808-13.656H70.67c-35.03,0-62.805,18.556-63.254,48.394c-0.52,29.683,22.028,42.163,52.241,51.492
	c14.119,4.392,25.701,8.19,25.56,16.348c-0.056,3.01-1.221,5.748-3.352,7.951c-3.524,3.639-8.94,5.012-16.432,5.192
	c-14.48,0.254-25.21-1.997-42.256-12.065l-15.76,31.269c30.774,17.508,76.134,23.285,104.337,0.617
	c0.635-0.54,1.251-1.043,1.847-1.554l-5.095,13.619h46.339l7.765-23.599c16.545,5.483,36.06,5.881,53.85,0.189l7.52,23.41h75.593
	v-48.963h16.46c39.84,0,63.472-20.294,63.472-54.311C379.502,193.373,356.574,175.984,307.811,175.984"/>
<g>
	<path style="fill:#D6D6D8;" d="M46.034,300.672c-6.857-1.756-14.005-4.864-22.86-10.094l-15.76,31.269
		c7.448,4.237,15.486,7.711,23.896,10.28L46.034,300.672z"/>
	<path style="fill:#D6D6D8;" d="M73.307,277.822v-0.498c-26.483-10.368-42.975-24.283-42.525-51.948
		c0.407-29.056,23.061-47.727,52.137-51.41c-4.161-0.446-8.242-0.694-12.137-0.7h-0.114c-35.037,0-62.805,18.561-63.254,48.394
		c-0.52,29.683,22.029,42.163,52.241,51.492C64.663,274.71,69.348,276.193,73.307,277.822z"/>
	<polygon style="fill:#D6D6D8;" points="190.245,175.975 167.988,175.975 108.504,334.529 138.399,334.529 	"/>
	<polygon style="fill:#D6D6D8;" points="256,334.529 286.193,334.529 286.193,175.98 256.755,175.975 256.755,297.262 256,295.207 	
		"/>
</g>
<g>
</g>
<g>
</g>
<g>
</g>
<g>
</g>
<g>
</g>
<g>
</g>
<g>
</g>
<g>
</g>
<g>
</g>
<g>
</g>
<g>
</g>
<g>
</g>
<g>
</g>
<g>
</g>
<g>
</g>
</svg>
