<?xml version="1.0" encoding="iso-8859-1"?>
<!-- Generator: Adobe Illustrator 19.0.0, SVG Export Plug-In . SVG Version: 6.00 Build 0)  -->
<svg version="1.1" id="Capa_1" xmlns="http://www.w3.org/2000/svg" xmlns:xlink="http://www.w3.org/1999/xlink" x="0px" y="0px"
	 viewBox="0 0 508.1 508.1" style="enable-background:new 0 0 508.1 508.1;" xml:space="preserve">
<g>
	<g>
		<path d="M467,127h-81.9V94.2c0-40.7-33.1-73.7-73.7-73.7H196.6c-40.7,0-73.7,33.1-73.7,73.7V127H41c-22.6,0-41,18.4-41,41v278.6
			c0,22.6,18.4,41,41,41h41h100.5h143.1h100.5h41c22.6,0,41-18.4,41-41V168C508,145.4,489.6,127,467,127z M139.2,94.2h0.1
			c0-31.6,25.7-57.4,57.4-57.4h114.7c31.6,0,57.4,25.7,57.4,57.4V127h-16.4V94.2c0-22.6-18.4-41-41-41H196.6c-22.6,0-41,18.4-41,41
			V127h-16.4V94.2z M336,94.2V127h-0.1H172.1V94.2c0-13.6,11-24.6,24.6-24.6h114.7C325,69.6,336,80.6,336,94.2z M199.5,471.1
			c4-26.5,26.9-46.9,54.5-46.9c27.6,0,50.6,20.4,54.5,46.9H199.5z M409.8,471.1H325c-4.1-35.6-34.4-63.3-71-63.3
			c-36.7,0-66.9,27.7-71,63.3H98.3v-17.6l41.2-6.9l1.6-4.7c1.8-5.3,4-10.7,6.7-16l2.2-4.4l-24.3-34l36.5-36.5l34,24.3l4.4-2.2
			c5.3-2.7,10.7-4.9,16-6.7l4.7-1.6l6.9-41.2h51.7l6.9,41.2l4.7,1.6c5.3,1.8,10.7,4,16,6.7l4.4,2.2l34-24.3l36.5,36.5l-24.3,34
			l2.2,4.4c2.7,5.3,4.9,10.7,6.7,16l1.6,4.7l41.2,6.9V471.1z M491.4,446.5c0.2,13.6-10.8,24.6-24.4,24.6h-41v-31.5l-45.2-7.5
			c-1.1-3-2.4-6-3.8-9l26.7-37.3l-56.2-56.2l-37.3,26.7c-3-1.4-6-2.6-9-3.8l-7.5-45.2h-79.4l-7.5,45.2c-3,1.1-6,2.4-9,3.8
			l-37.3-26.7l-56.2,56.2l26.7,37.3c-1.4,3-2.6,6-3.8,9L82,439.6v31.5H41c-13.6,0-24.6-11-24.6-24.6V225.3h65.5v49.2h65.5v-49.2h213
			v49.2h65.5v-49.2h65.5V446.5z M98.3,258.1v-32.8h32.8v32.8H98.3z M376.9,258.1v-32.8h32.8v32.8H376.9z M491.6,209h-73.7h-8.2
			h-32.8h-8.2H139.3h-8.2H98.3h-8.2H16.4v-41c0-13.6,11-24.6,24.6-24.6h81.9h32.8h196.6h32.8H467c13.6,0,24.6,11,24.6,24.6V209z"/>
	</g>
</g>
<g>
	<g>
		<rect x="213" y="168" width="16.4" height="16.4"/>
	</g>
</g>
<g>
	<g>
		<rect x="245.8" y="168" width="16.4" height="16.4"/>
	</g>
</g>
<g>
	<g>
		<rect x="278.6" y="168" width="16.4" height="16.4"/>
	</g>
</g>
<g>
	<g>
		<rect x="245.8" y="340" width="16.4" height="16.4"/>
	</g>
</g>
<g>
	<g>
		<rect x="149.864" y="378.583" transform="matrix(0.7071 -0.7071 0.7071 0.7071 -227.2009 225.054)" width="16.4" height="16.4"/>
	</g>
</g>
<g>
	<g>
		<rect x="341.709" y="378.612" transform="matrix(0.7071 -0.7071 0.7071 0.7071 -171.0315 360.7176)" width="16.4" height="16.4"/>
	</g>
</g>
<g>
</g>
<g>
</g>
<g>
</g>
<g>
</g>
<g>
</g>
<g>
</g>
<g>
</g>
<g>
</g>
<g>
</g>
<g>
</g>
<g>
</g>
<g>
</g>
<g>
</g>
<g>
</g>
<g>
</g>
</svg>
